<svg id="Grupo_104" data-name="Grupo 104" xmlns="http://www.w3.org/2000/svg" xmlns:xlink="http://www.w3.org/1999/xlink" width="181.688" height="65.079" viewBox="0 0 181.688 65.079">
  <defs>
    <clipPath id="clip-path">
      <rect id="Rectángulo_2" data-name="Rectángulo 2" width="181.688" height="65.079" fill="none"/>
    </clipPath>
  </defs>
  <g id="Grupo_101" data-name="Grupo 101" clip-path="url(#clip-path)">
    <path id="Trazado_154" data-name="Trazado 154" d="M820.579,272.373a13.623,13.623,0,0,1-3.6,1.481,16.67,16.67,0,0,1-4.426.586,14.978,14.978,0,0,1-5.1-.827,11.529,11.529,0,0,1-3.963-2.342,10.381,10.381,0,0,1-2.566-3.685,13.418,13.418,0,0,1,.017-9.766,11.255,11.255,0,0,1,2.6-3.823,11.847,11.847,0,0,1,3.994-2.5,14.119,14.119,0,0,1,5.116-.9,14.977,14.977,0,0,1,3.531.432,12.642,12.642,0,0,1,3.049,1.119l1.068-1.136h.2l.379,8.128h-.2a12.833,12.833,0,0,0-1.655-3.29,15.675,15.675,0,0,0-2.134-2.479,11.075,11.075,0,0,0-2.1-1.568,3.572,3.572,0,0,0-1.548-.55,5.331,5.331,0,0,0-2.841.791,6.728,6.728,0,0,0-2.188,2.241,12.015,12.015,0,0,0-1.4,3.478,19.174,19.174,0,0,0-.5,4.546,20.445,20.445,0,0,0,.5,4.667,12.964,12.964,0,0,0,1.4,3.635,6.961,6.961,0,0,0,2.168,2.342,5.134,5.134,0,0,0,2.861.827,3.847,3.847,0,0,0,1.789-.69,15.366,15.366,0,0,0,2.378-1.826,22.08,22.08,0,0,0,2.429-2.65,14.751,14.751,0,0,0,1.91-3.169h.208Z" transform="translate(-734.936 -230.218)" fill="#00224a"/>
    <path id="Trazado_155" data-name="Trazado 155" d="M1110.666,342.227,1104.5,343.3h-.174l-.791-3.374a6.686,6.686,0,0,1-.774,1.1,7.019,7.019,0,0,1-1.172,1.083,7.225,7.225,0,0,1-1.481.844,4.31,4.31,0,0,1-1.705.345,4.619,4.619,0,0,1-3.719-1.672,7.888,7.888,0,0,1-1.517-4.942l.137-.207L1103.433,333v-1.414a12.074,12.074,0,0,0-.432-3.357,3.052,3.052,0,0,0-1.324-1.98,38.326,38.326,0,0,0-3.273,3.169,26.738,26.738,0,0,0-2.757,3.548h-.137l-1.722-4.858a15.279,15.279,0,0,1,4.462-2.067,14.878,14.878,0,0,1,3.427-.482,7.333,7.333,0,0,1,5.371,1.963,7.24,7.24,0,0,1,2,5.407v7.923l1.618,1.24Zm-8.111-2.305a3.175,3.175,0,0,0,.878-.623v-5.749l-5.2,2.788a4.321,4.321,0,0,0,.294,1.672,3.777,3.777,0,0,0,.757,1.189,3.129,3.129,0,0,0,1.052.724,3.062,3.062,0,0,0,1.169.241,2.407,2.407,0,0,0,1.052-.241" transform="translate(-1004.24 -299.072)" fill="#00224a"/>
    <path id="Trazado_156" data-name="Trazado 156" d="M1332.94,258.511h-8.818v-.137l1.618-1.069v-20.46l-1.686-1.24v-.137l7.1-1.792h.2v23.629l1.585,1.069Z" transform="translate(-1216.345 -214.667)" fill="#00224a"/>
    <path id="Trazado_157" data-name="Trazado 157" d="M1462.988,256.2h-8.818v-.137l1.618-1.069v-12.57l-1.688-1.276v-.137l7.1-1.792h.208v15.776l1.585,1.069Zm-6.908-19.548a2.969,2.969,0,0,1-.982-2.325,2.877,2.877,0,0,1,1.018-2.288,3.677,3.677,0,0,1,2.5-.878,3.567,3.567,0,0,1,2.446.878,2.9,2.9,0,0,1,1,2.288,2.936,2.936,0,0,1-1,2.325,3.569,3.569,0,0,1-2.446.881,3.659,3.659,0,0,1-2.533-.881" transform="translate(-1335.811 -212.354)" fill="#00224a"/>
    <path id="Trazado_158" data-name="Trazado 158" d="M1593.283,241.77a6.172,6.172,0,0,1,2.154,1.775,8.352,8.352,0,0,1,1.377,2.754,12.318,12.318,0,0,1,.482,3.565,10.951,10.951,0,0,1-.586,3.688,8.256,8.256,0,0,1-1.669,2.841,7.587,7.587,0,0,1-2.583,1.843,8.34,8.34,0,0,1-3.36.653,12.835,12.835,0,0,1-3.615-.482,7.666,7.666,0,0,1-2.72-1.343l-3.1,1.826-.308-.241.55-4.58V236.845l-1.689-1.24v-.138l7.1-1.792h.207v10.472a6.039,6.039,0,0,1,2.067-2.171,5.358,5.358,0,0,1,2.928-.827,6.183,6.183,0,0,1,2.771.62m-4.235,15.725a4.481,4.481,0,0,0,1.31-1.464,8.531,8.531,0,0,0,.895-2.325,13.036,13.036,0,0,0,.328-3.049,11.177,11.177,0,0,0-.295-2.653,7.352,7.352,0,0,0-.81-2.067,3.965,3.965,0,0,0-1.239-1.327,2.94,2.94,0,0,0-1.619-.463,2.877,2.877,0,0,0-2.1.895v11.883a2.567,2.567,0,0,0,.878.774,2.287,2.287,0,0,0,1.119.294,2.72,2.72,0,0,0,1.534-.5" transform="translate(-1449.828 -214.667)" fill="#00224a"/>
    <path id="Trazado_159" data-name="Trazado 159" d="M1850.22,332.065a3.86,3.86,0,0,0-1.327-.654,5.617,5.617,0,0,0-1.6-.241,4.646,4.646,0,0,0-2.2.6,5.218,5.218,0,0,0-1.618,1.394v8.543l1.585,1.069v.137H1836.2v-.137l1.655-1.069V328.829l-1.618-1.24v-.137l6.543-1.688h.174l.516,3.685v3.065a33.674,33.674,0,0,1,1.5-3.427,13.181,13.181,0,0,1,1.327-2.134,4.52,4.52,0,0,1,1.136-1.085,1.9,1.9,0,0,1,.965-.311,4.762,4.762,0,0,1,1.223.137,1.961,1.961,0,0,1,.707.311l.034,5.96Z" transform="translate(-1686.827 -299.072)" fill="#00224a"/>
    <path id="Trazado_160" data-name="Trazado 160" d="M2044.768,340.35a6.113,6.113,0,0,0,1.9-.911l.275.275a10.564,10.564,0,0,1-3.5,2.617,9.738,9.738,0,0,1-4.185.965,9.264,9.264,0,0,1-3.427-.62,7.921,7.921,0,0,1-2.72-1.773,8.243,8.243,0,0,1-1.809-2.791,10.432,10.432,0,0,1,0-7.27,8.172,8.172,0,0,1,1.842-2.807,8.431,8.431,0,0,1,2.824-1.823,9.59,9.59,0,0,1,3.6-.656,7.988,7.988,0,0,1,3.186.6,7.558,7.558,0,0,1,2.375,1.585,6.87,6.87,0,0,1,1.5,2.221,6.56,6.56,0,0,1,.516,2.549,2.317,2.317,0,0,1-.308,1.273h-10.473a8.254,8.254,0,0,0,.586,2.774,7.409,7.409,0,0,0,1.343,2.171,6.182,6.182,0,0,0,1.9,1.43,5.172,5.172,0,0,0,2.271.516,8.045,8.045,0,0,0,2.308-.328m-6.664-13.468a6.147,6.147,0,0,0-.881,1.655,14.286,14.286,0,0,0-.62,2.272,13.3,13.3,0,0,0-.241,2.5l5.27-.864a12.2,12.2,0,0,0-.583-3.926,3.508,3.508,0,0,0-1.9-2.272,1.372,1.372,0,0,0-1.049.637" transform="translate(-1865.456 -299.072)" fill="#00224a"/>
    <path id="Trazado_161" data-name="Trazado 161" d="M27.195,19.194a.057.057,0,0,0,.068.041,22.741,22.741,0,0,1,3.279-.51.057.057,0,0,0,.051-.072L25.8.761a.059.059,0,0,0-.069-.042q-.6.128-1.193.279l-.878.235q-.566.16-1.128.34a.058.058,0,0,0-.039.07Zm7.755-.337a13.774,13.774,0,0,1,2.35.625.061.061,0,0,0,.08-.041l4.8-17.935a.048.048,0,0,0-.032-.059c-.132-.04-.532-.16-.73-.216L40.547,1q-.39-.1-.782-.188a.049.049,0,0,0-.058.035L34.9,18.781a.061.061,0,0,0,.049.077M31.1,18.687c.176,0,.773-.041,1.437-.041a14.049,14.049,0,0,1,1.444.075.047.047,0,0,0,.053-.048V.082a.049.049,0,0,0-.046-.049Q33.273,0,32.553,0h-.022q-.719,0-1.439.033a.049.049,0,0,0-.047.049v18.56a.056.056,0,0,0,.06.045m7.5,1.346a13.944,13.944,0,0,1,1.744,1.01.056.056,0,0,0,.081-.019L49.714,4.936A.049.049,0,0,0,49.7,4.87L47.929,3.849a.049.049,0,0,0-.066.018L38.576,19.953a.057.057,0,0,0,.024.08m3.189,2.141A13.862,13.862,0,0,1,42.918,23.3a.048.048,0,0,0,.069,0L56.115,10.177a.049.049,0,0,0,0-.068c-.186-.195-.373-.388-.565-.579s-.378-.372-.569-.555a.062.062,0,0,0-.086,0L41.787,22.086a.06.06,0,0,0,0,.088M8.862,42.163A24.022,24.022,0,0,1,27.029,19.29a.057.057,0,0,0,.036-.084L17.99,3.489a.057.057,0,0,0-.076-.024q-.538.271-1.066.562l-1.09.629c-.364.219-.725.444-1.082.679a.058.058,0,0,0-.018.078L22.935,19.75a.058.058,0,0,1-.091.07L11.133,8.108a.058.058,0,0,0-.079,0q-.776.683-1.519,1.423l0,0q-.742.742-1.423,1.519a.059.059,0,0,0,0,.08L18.653,21.675a.058.058,0,0,1-.07.091L5.654,14.3a.059.059,0,0,0-.078.018q-.482.711-.921,1.441l-.628,1.088q-.4.718-.752,1.45a.059.059,0,0,0,.024.076l11.5,6.64a.058.058,0,0,1-.044.106l-12.84-3.44a.058.058,0,0,0-.07.037q-.339.965-.615,1.946L1,24.531Q.743,25.544.553,26.57a.059.059,0,0,0,.042.067l11.238,3.011a.058.058,0,0,1-.015.113H.166a.048.048,0,0,0-.048.045Q0,31.169,0,32.536v.009q0,1.368.117,2.731a.048.048,0,0,0,.048.045H9.34a.058.058,0,0,1,.015.113L.482,37.811a.058.058,0,0,0-.042.066q.223,1.347.56,2.677l.231.861q.365,1.292.836,2.558a.058.058,0,0,0,.069.036l6.683-1.791a.056.056,0,0,0,.042-.055M58.245,52.2,45.057,39.009a.149.149,0,0,0-.238.037A13.894,13.894,0,1,1,22.135,23.336a.091.091,0,0,0-.108-.142A22.291,22.291,0,0,0,14.565,55.96l.028-.028-.022.038a23.7,23.7,0,0,0,2.065,2.436,21.978,21.978,0,0,0,15.9,6.674h0a32.591,32.591,0,0,0,25.721-12.6.214.214,0,0,0-.018-.281M19.812,62.213a23.252,23.252,0,0,1-9.751-12.524.053.053,0,0,0-.089-.022L7.006,52.635a.054.054,0,0,0,0,.072,32.312,32.312,0,0,0,12.691,9.736.13.13,0,0,0,.119-.23M9.989,49.469c-.234-.744-.439-1.51-.607-2.3a22.814,22.814,0,0,1-.521-4.822.048.048,0,0,0-.072-.041L2.839,45.74a.049.049,0,0,0-.02.062q.55,1.234,1.208,2.431l.63,1.09Q5.373,50.512,6.2,51.65a.048.048,0,0,0,.064.014l3.7-2.139a.048.048,0,0,0,.022-.056" transform="translate(-0.001)" fill="#df2814"/>
  </g>
</svg>
